<?xml version="1.0" encoding="UTF-8"?>
<svg width="200px" height="165px" viewBox="0 0 200 165" version="1.1" xmlns="http://www.w3.org/2000/svg" xmlns:xlink="http://www.w3.org/1999/xlink">
    <title>LOGO</title>
    <defs>
        <filter color-interpolation-filters="auto" id="filter-1">
            <feColorMatrix in="SourceGraphic" type="matrix" values="0 0 0 0 0.108800 0 0 0 0 0.134400 0 0 0 0 0.211200 0 0 0 1.000000 0"></feColorMatrix>
        </filter>
    </defs>
    <g id="LOGO" stroke="none" stroke-width="1" fill="none" fill-rule="evenodd">
        <g id="Group-2" transform="translate(42.000000, 43.932621)">
            <g id="Group" transform="translate(18.611479, 19.014063) rotate(-40.000000) translate(-18.611479, -19.014063) translate(6.891138, 4.027500)"></g>
        </g>
        <g filter="url(#filter-1)">
            <g transform="translate(10.117844, 0.242029)">
                <path d="M132.432156,165.201971 C132.92549,165.201971 133.29549,165.078638 133.542156,164.831971 C133.788823,164.585305 133.912156,164.264638 133.912156,163.869971 L133.912156,154.249971 L133.912156,154.249971 C133.912156,150.697971 133.88749,147.121305 133.838156,143.519971 C133.788823,139.918638 133.764156,136.391305 133.764156,132.937971 L133.764156,123.465971 L133.764156,123.465971 C133.764156,116.855305 133.838156,110.663971 133.986156,104.891971 C134.134156,99.1199714 134.306823,94.1126381 134.504156,89.8699714 C134.70149,85.3313047 134.898823,81.0639714 135.096156,77.0679714 C135.29349,73.0719714 135.73749,70.3339714 136.428156,68.8539714 C137.612156,65.9926381 139.314156,63.8713047 141.534156,62.4899714 C143.754156,61.1086381 146.68949,60.1713047 150.340156,59.6779714 L150.340156,58.1979714 L113.636156,58.1979714 L113.636156,59.6779714 C118.372156,60.3686381 121.998156,61.5773047 124.514156,63.3039714 C127.030156,65.0306381 128.78149,67.2753047 129.768156,70.0379714 C130.55749,72.1099714 131.00149,74.9466381 131.100156,78.5479714 C131.198823,82.1493047 131.248156,85.9233047 131.248156,89.8699714 L131.248156,140.189971 L61.0961562,58.1979714 L31.0521562,58.1979714 L31.0521562,59.6779714 C32.6308229,59.8753047 34.2834895,60.1959714 36.0101562,60.6399714 C37.7368229,61.0839714 39.3401562,61.8239714 40.8201562,62.8599714 C42.3001562,63.8959714 43.5828229,65.3266381 44.6681562,67.1519714 C45.7534895,68.9773047 46.4441562,71.3206381 46.7401562,74.1819714 C46.8388229,77.0433047 46.8881562,79.4606381 46.8881562,81.4339714 L46.8881562,99.4899714 L46.8881562,99.4899714 C46.8881562,106.100638 46.8388229,112.291971 46.7401562,118.063971 C46.6414895,123.835971 46.4934895,128.843305 46.2961562,133.085971 C46.0988229,138.709971 45.8028229,143.544638 45.4081562,147.589971 C45.0134895,151.635305 44.1254895,154.693971 42.7441562,156.765971 C41.3628229,158.936638 39.4881562,160.490638 37.1201562,161.427971 C34.7521562,162.365305 32.3841562,162.981971 30.0161562,163.277971 L30.0161562,164.757971 L66.4241562,164.757971 L66.4241562,163.277971 C62.3788229,162.784638 59.1968229,161.970638 56.8781562,160.835971 C54.5594895,159.701305 52.8574895,157.999305 51.7721562,155.729971 C50.7854895,153.756638 50.1688229,150.747305 49.9221562,146.701971 C49.6754895,142.656638 49.5521562,138.117971 49.5521562,133.085971 L49.5521562,70.6299714 C56.2614895,78.1286381 62.6254895,85.3806381 68.6441562,92.3859714 C74.6628229,99.3913047 80.8048229,106.569305 87.0701562,113.919971 C93.3354895,121.270638 99.9214895,128.991305 106.828156,137.081971 C113.734823,145.172638 121.38149,154.052638 129.768156,163.721971 C130.754823,164.708638 131.642823,165.201971 132.432156,165.201971 Z" id="N" fill="#000000" fill-rule="nonzero"></path>
                <g id="BRUSH" fill="#000000">
                    <path d="M50.3986802,47.5441543 L50.5531381,47.7309065 C50.8246892,47.7339568 51.1010286,47.7429784 51.3821562,47.7579714 C53.3821562,51.0913047 56.2154895,54.2579714 59.8821562,57.2579714 C60.7621562,57.9779714 61.6504982,58.6324246 62.6066661,59.3224255 L62.9685245,59.5830396 C67.9605501,63.172935 74.9293615,68.0284259 91.8821562,87.7579714 C105.234205,103.296994 118.164477,120.518753 130.672973,139.423251 L131.882156,141.257971 L131.882156,165.257971 C114.529544,148.951301 100.375143,135.326633 89.4189518,124.383966 L88.2147586,123.179152 C79.4805251,114.424782 72.8696576,107.451055 68.3821562,102.257971 C59.3909343,91.8530354 53.7145202,82.2834304 47.8821562,69.7579714 C47.8225497,69.6299619 47.763152,69.5029355 47.703963,69.3768923 C47.4119712,69.7657325 47.1441056,70.1546739 46.8986802,70.5441543 C46.4556077,66.8437086 45.288941,64.3437086 43.3986802,63.0441543 C41.76386,61.9202154 38.4263082,60.8956754 33.3860248,59.9705341 L33.0896802,59.9161543 L33.2186075,59.8966868 C34.1352741,59.7300201 35.1952984,59.2791759 36.3986802,58.5441543 C38.6080893,57.1946545 39.2000478,54.6097449 41.0312722,52.3402259 C41.7206505,51.2859764 42.5037087,50.4255915 43.3821562,49.7579714 C44.9207506,48.5886396 46.8647843,47.9249215 49.2142573,47.7668171 C49.6011394,47.6824129 49.9958811,47.6081693 50.3986802,47.5441543 Z M30.8986802,59.5441543 C31.5952286,59.6559142 32.2651718,59.7692272 32.9085098,59.8840933 L33.0896802,59.9161543 L33.0096138,59.9301037 C32.2526347,60.0341359 31.5982963,59.9347036 31.0465984,59.631807 L30.8986802,59.5441543 Z M4.24970022,1.13686838e-13 C7.15756116,7.78393604 11.7781583,13.0092374 18.1114916,15.6759041 C27.6114916,19.6759041 38.1257363,17.8235887 42.873955,25.0283228 C46.0394342,29.8314788 46.9552389,35.5900639 45.6213692,42.3040779 C42.8492079,42.8896543 40.5055717,43.9859271 38.5904606,45.5928961 C36.6753495,47.1998651 35.1887635,49.3175304 34.1307025,51.945892 C21.2369515,50.5812324 11.5511779,45.0017849 5.07338173,35.2075496 C-1.40441446,25.4133143 -1.67897496,13.6774644 4.24970022,1.13686838e-13 Z" id="Combined-Shape"></path>
                </g>
            </g>
        </g>
    </g>
</svg>